<svg viewBox="-152.008 -78.244 1152.008 909.595" xmlns="http://www.w3.org/2000/svg" xmlns:xlink="http://www.w3.org/1999/xlink" xmlns:bx="https://boxy-svg.com">
  <defs>
    <pattern id="pattern-1" viewBox="0 0 100 100" patternUnits="userSpaceOnUse" preserveAspectRatio="none" width="100" height="100" bx:pinned="true"></pattern>
    <pattern id="pattern-1-0" patternTransform="matrix(1, 0, 0, 1, 400.547485, 99.2645)" xlink:href="#pattern-1"></pattern>
  </defs>
  <g transform="matrix(7.137503, 0, 0, 7.979443, 325.252625, 325.044342)" style="">
    <defs></defs>
    <path d="M 29.978 11.32 L 24.529 10.709 L 24.529 14.377 L 29.978 13.765 L 27.798 12.542 L 29.978 11.32 Z" fill="#FF8044" style=""></path>
    <path d="M 10.519 34.458 L 38.54 34.458 L 36.983 33.061 L 12.076 33.061 L 10.519 34.458 Z" fill="#C7521E" style=""></path>
    <path d="M 24.14 11.408 C 24.14 10.011 24.919 10.011 24.919 11.408 C 24.919 14.901 25.697 17.695 25.697 17.695 L 23.362 17.695 C 23.362 17.695 24.14 14.901 24.14 11.408 Z" fill="#662113" style=""></path>
    <path d="M 32.312 29.569 L 32.312 28.172 L 29.199 26.818 L 29.199 23.981 L 27.642 22.584 L 27.547 22.584 C 27.547 22.584 28.117 19.813 26.475 18.777 L 26.475 17.695 L 25.697 16.996 L 23.362 16.996 L 22.583 17.695 L 22.583 18.777 C 20.942 19.813 21.511 22.584 21.511 22.584 L 21.416 22.584 L 19.859 23.981 L 19.859 26.818 L 16.745 28.172 L 16.745 29.569 L 13.632 30.966 L 13.632 33.759 L 35.426 33.786 L 35.426 30.966 L 32.312 29.569 Z" fill="#C7521E" style=""></path>
    <path d="M 25.966 22.584 L 23.092 22.584 C 23.092 22.584 22.614 19.091 23.571 19.091 L 25.487 19.091 C 26.446 19.091 25.966 22.584 25.966 22.584 Z" fill="#662113" style=""></path>
    <path d="M 19.691 25.711 L 19.691 25.347 L 19.464 25.143 L 19.415 25.143 C 19.347 24.839 19.236 24.226 19.236 23.51 C 19.236 23.103 19.009 23.103 19.009 23.51 C 19.009 24.225 18.898 24.839 18.83 25.143 L 18.782 25.143 L 18.555 25.347 L 18.555 25.711 C 18.193 26.042 18.327 26.775 18.327 26.775 L 19.918 26.775 C 19.918 26.775 20.053 26.042 19.691 25.711 Z M 30.514 25.711 L 30.514 25.347 L 30.287 25.143 L 30.238 25.143 C 30.172 24.839 30.06 24.226 30.06 23.51 C 30.06 23.103 29.833 23.103 29.833 23.51 C 29.833 24.225 29.722 24.839 29.655 25.143 L 29.606 25.143 L 29.378 25.347 L 29.378 25.711 C 29.016 26.042 29.151 26.775 29.151 26.775 L 30.743 26.775 C 30.742 26.775 30.875 26.042 30.514 25.711 Z M 33.628 28.505 L 33.628 28.141 L 33.4 27.937 L 33.352 27.937 C 33.285 27.633 33.173 27.02 33.173 26.304 C 33.173 25.897 32.946 25.897 32.946 26.304 C 32.946 27.019 32.835 27.633 32.768 27.937 L 32.719 27.937 L 32.491 28.141 L 32.491 28.505 C 32.13 28.836 32.265 29.569 32.265 29.569 L 33.856 29.569 C 33.855 29.569 33.989 28.836 33.628 28.505 Z M 36.741 31.997 L 36.741 31.634 L 36.514 31.429 L 36.465 31.429 C 36.398 31.126 36.287 30.512 36.287 29.797 C 36.287 29.389 36.059 29.389 36.059 29.797 C 36.059 30.511 35.948 31.126 35.881 31.429 L 35.832 31.429 L 35.605 31.634 L 35.605 31.997 C 35.243 32.328 35.378 33.061 35.378 33.061 L 36.97 33.061 C 36.969 33.061 37.102 32.328 36.741 31.997 Z M 16.577 28.505 L 16.577 28.141 L 16.351 27.937 L 16.301 27.937 C 16.234 27.633 16.123 27.019 16.123 26.304 C 16.123 25.897 15.895 25.897 15.895 26.304 C 15.895 27.019 15.785 27.633 15.717 27.937 L 15.668 27.937 L 15.441 28.141 L 15.441 28.505 C 15.08 28.836 15.213 29.569 15.213 29.569 L 16.805 29.569 C 16.805 29.569 16.939 28.836 16.577 28.505 Z M 13.464 31.997 L 13.464 31.634 L 13.237 31.429 L 13.188 31.429 C 13.121 31.125 13.01 30.511 13.01 29.797 C 13.01 29.389 12.782 29.389 12.782 29.797 C 12.782 30.511 12.671 31.126 12.604 31.429 L 12.554 31.429 L 12.328 31.634 L 12.328 31.997 C 11.966 32.328 12.1 33.061 12.1 33.061 L 13.692 33.061 C 13.692 33.061 13.826 32.328 13.464 31.997 Z" fill="#C7521E" style=""></path>
    <path d="M 22.583 17.695 L 23.362 16.996 L 25.697 16.996 L 26.475 17.695 L 22.583 17.695 Z M 19.859 23.981 L 21.416 22.584 L 27.642 22.584 L 29.199 23.981 L 19.859 23.981 Z M 16.745 28.172 L 18.302 26.775 L 30.755 26.775 L 32.312 28.172 L 16.745 28.172 Z M 13.632 30.966 L 15.189 29.569 L 33.869 29.569 L 35.426 30.966 L 13.632 30.966 Z M 10.519 34.458 L 12.076 33.061 L 36.983 33.061 L 38.54 34.458 L 10.519 34.458 Z" fill="#FF8044" style=""></path>
    <path d="M 26.864 26.775 L 22.194 26.775 C 22.194 26.775 22.194 23.981 23.362 23.981 L 25.697 23.981 C 26.864 23.981 26.864 26.775 26.864 26.775 Z M 27.642 29.569 L 21.416 29.569 C 21.416 29.569 21.416 28.172 22.972 28.172 L 26.085 28.172 C 27.642 28.172 27.642 29.569 27.642 29.569 Z" fill="#662113" style=""></path>
    <path d="M 29.199 33.061 L 19.859 33.061 C 19.859 33.061 19.859 30.966 22.194 30.966 L 26.864 30.966 C 29.199 30.966 29.199 33.061 29.199 33.061 Z" fill="#292F33" style=""></path>
    <path d="M 26.864 28.172 L 22.194 28.172 C 21.765 28.172 21.416 27.859 21.416 27.473 C 21.416 27.088 21.765 26.775 22.194 26.775 L 26.864 26.775 C 27.294 26.775 27.642 27.088 27.642 27.473 C 27.642 27.859 27.294 28.172 26.864 28.172 Z M 27.642 30.966 L 21.416 30.966 C 20.986 30.966 20.637 30.653 20.637 30.267 C 20.637 29.882 20.986 29.569 21.416 29.569 L 27.642 29.569 C 28.072 29.569 28.421 29.882 28.421 30.267 C 28.421 30.653 28.072 30.966 27.642 30.966 Z M 29.199 34.458 L 19.859 34.458 C 19.43 34.458 19.081 34.145 19.081 33.759 C 19.081 33.374 19.43 33.061 19.859 33.061 L 29.199 33.061 C 29.629 33.061 29.978 33.374 29.978 33.759 C 29.978 34.145 29.629 34.458 29.199 34.458 Z" fill="#FFA06C" style=""></path>
    <path d="M 26.864 30.966 L 27.642 30.966 L 27.642 33.061 L 26.864 33.061 L 26.864 30.966 Z M 21.416 30.966 L 22.194 30.966 L 22.194 33.061 L 21.416 33.061 L 21.416 30.966 Z" fill="#FF8044" style=""></path>
  </g>
  <path style="stroke: rgb(0, 0, 0); fill: none;" d="M 198.828 698.417 L 900 700"></path>
  <path style="stroke: rgb(0, 0, 0); fill: none;" d="M 200 600 L 299.121 600 L 900 600"></path>
  <path style="fill: rgb(216, 216, 216); stroke: rgb(0, 0, 0);" d="M 200.082 699.671 L 200 800"></path>
  <path style="fill: rgb(216, 216, 216); stroke: rgb(0, 0, 0);" d="M 100.961 -3.241 L 100 200 L 99.706 800.048"></path>
  <path style="fill: rgb(216, 216, 216); stroke: rgb(0, 0, 0);" d="M 201.337 102.015 L 200 0"></path>
  <text style="fill: rgb(51, 51, 51); font-family: &quot;Comic Sans MS&quot;; font-size: 35.1px; white-space: pre;" x="390.797" y="660.357">Khunti Road</text>
  <path d="M 622.917 639.046 H 760.04 L 760.04 624.046 L 800.04 644.046 L 760.04 664.046 L 760.04 649.046 H 622.917 V 639.046 Z" style="fill: rgb(216, 216, 216); stroke: rgb(0, 0, 0);" transform="matrix(0.999774, 0.021251, -0.021251, 0.999774, 13.827555, -13.092405)" bx:shape="arrow 622.917 624.046 177.123 40 10 40 0 1@c791606d"></path>
  <path d="M 141.111 435.784 H 260.327 L 260.327 420.784 L 300.327 440.784 L 260.327 460.784 L 260.327 445.784 H 141.111 V 435.784 Z" style="fill: rgb(216, 216, 216); stroke: rgb(0, 0, 0);" transform="matrix(0, 1, -1, 0, 581.895813, 299.673035)" bx:shape="arrow 141.111 420.784 159.216 40 10 40 0 1@58dc5c5e"></path>
  <path d="M 146.13 694.671 H 206.467 L 206.467 679.671 L 246.467 699.671 L 206.467 719.671 L 206.467 704.671 H 146.13 V 694.671 Z" style="fill: rgb(216, 216, 216); stroke: rgb(0, 0, 0);" transform="matrix(-0.012505, 0.999922, -0.999922, -0.012505, 847.573853, 562.301575)" bx:shape="arrow 146.13 679.671 100.337 40 10 40 0 1@7efdb788"></path>
  <path d="M 201.337 644.065 H 260.072 L 260.072 629.065 L 300.072 649.065 L 260.072 669.065 L 260.072 654.065 H 201.337 V 644.065 Z" style="fill: rgb(216, 216, 216); stroke: rgb(0, 0, 0);" transform="matrix(0.999273, 0.038123, -0.038123, 0.999273, 24.890945, -7.20381)" bx:shape="arrow 201.337 629.065 98.735 40 10 40 0 1@0c251312"></path>
  <text style="fill: rgb(51, 51, 51); font-family: &quot;Comic Sans MS&quot;; font-size: 35.1px; white-space: pre;" transform="matrix(0, 1, -1, 0, 283.353088, -266.599426)" x="292.93" y="150.948">Nayabasan School Road</text>
  <path style="stroke: rgb(0, 0, 0); fill: none;" d="M 400 200 L 400 300 L 500 300 L 500 200 L 400 200 Z"></path>
  <text style="fill: rgb(51, 51, 51); font-family: &quot;Franklin Gothic&quot;; font-size: 18px; font-weight: 700; text-transform: capitalize; white-space: pre; text-anchor: middle;" transform="matrix(1, 0, 0, 1, 3.856038, -12.547025)"><tspan x="447.259" y="255.367">BLDO</tspan><tspan x="447.259" dy="1em">​</tspan><tspan>OFFICE</tspan></text>
  <path style="stroke: rgb(0, 0, 0); fill: none;" d="M 201.337 98.529 L 300 98.669 L 300.763 264.584 L 201.337 264.584"></path>
  <text style="fill: rgb(51, 51, 51); font-family: &quot;Comic Sans MS&quot;; font-size: 35.1px; text-anchor: middle; white-space: pre;" transform="matrix(0, 1, -1, 0, 377.099365, -193.982285)" x="375.878" y="142.444">Girls HS</text>
  <path style="stroke: rgb(0, 0, 0); fill: none;" d="M -99.791 101.039 L 50.773 102.015 L 52.028 400 L -100 400 L -99.791 101.039 Z"></path>
  <text style="fill: rgb(51, 51, 51); font-family: &quot;Comic Sans MS&quot;; font-size: 35.1px; white-space: pre;" transform="matrix(0.025652, -0.999671, 0.999671, 0.025652, -229.637421, 270.815735)" x="-65.269" y="216.471" bx:origin="0.683 0.97">NJKV (HS)</text>
  <path style="stroke: rgb(0, 0, 0); fill-opacity: 0.17; paint-order: fill; fill: url(#pattern-1-0);" d="M 600.332 197.651 L 300.763 200 L 300.763 98.529 L 600 100 L 600.332 197.651 Z"></path>
  <text style="fill: rgb(51, 51, 51); font-family: &quot;Comic Sans MS&quot;; font-size: 35.1px; white-space: pre;" transform="matrix(1, 0, 0, 1, -42.660004, 21.330818)"><tspan x="433.457" y="144.953">Pond</tspan><tspan x="433.457" dy="1em">​</tspan></text>
  <text style="white-space: pre; fill: rgb(51, 51, 51); font-family: Arial, sans-serif; font-size: 35.1px;" x="816.141" y="207.689"> </text>
  <text style="fill: rgb(51, 51, 51); font-family: &quot;Cascadia Code&quot;; font-size: 23px; font-weight: 700; white-space: pre; text-anchor: middle;" x="460.502" y="336.855">Nayabasan High School Playground<tspan x="460.50201416015625" dy="1em">​</tspan>JL 154, Plot 606</text>
  <path d="M 800 99.5 H 860 L 860 80 L 900 100 L 860 120 L 860 100.5 H 800 V 99.5 Z" style="fill: rgb(216, 216, 216); stroke: rgb(0, 0, 0);" bx:shape="arrow 800 80 100 40 1 40 0 1@91251dbe"></path>
  <path d="M 800.425 100.539 H 860.881 L 860.881 81.039 L 900.881 101.039 L 860.881 121.039 L 860.881 101.539 H 800.425 V 100.539 Z" style="fill: rgb(216, 216, 216); stroke: rgb(0, 0, 0);" transform="matrix(-0.999688, -0.024986, 0.024986, -0.999688, 1597.151001, 221.013138)" bx:shape="arrow 800.425 81.039 100.456 40 1 40 0 1@5e4e55b2"></path>
  <path d="M 800.925 98.029 H 859.458 L 859.458 78.529 L 899.458 98.529 L 859.458 118.529 L 859.458 99.029 H 800.925 V 98.029 Z" style="fill: rgb(216, 216, 216); stroke: rgb(0, 0, 0);" transform="matrix(-0.009386, -0.999956, 0.999956, -0.009386, 709.917847, 900.155823)" bx:shape="arrow 800.925 78.529 98.533 40 1 40 0 1@280d58ef"></path>
  <path d="M 800.925 98.029 H 862.396 L 862.396 78.529 L 902.396 98.529 L 862.396 118.529 L 862.396 99.029 H 800.925 V 98.029 Z" style="fill: rgb(216, 216, 216); stroke: rgb(0, 0, 0);" transform="matrix(0, 1, -1, 0, 899.453125, -702.395996)" bx:shape="arrow 800.925 78.529 101.471 40 1 40 0 1@b8b7d71d"></path>
  <text style="fill: rgb(51, 51, 51); font-family: &quot;Cascadia Code&quot;; font-size: 35.1px; white-space: pre;" x="906.008" y="111.275">S</text>
  <text style="fill: rgb(51, 51, 51); font-family: &quot;Cascadia Code&quot;; font-size: 35.1px; white-space: pre;" x="671.652" y="108.784">N</text>
  <text style="fill: rgb(51, 51, 51); font-family: &quot;Cascadia Code&quot;; font-size: 35.1px; white-space: pre;" x="788.83" y="-9.158">E</text>
  <text style="fill: rgb(51, 51, 51); font-family: &quot;Cascadia Code&quot;; font-size: 35.1px; white-space: pre;" x="788.83" y="234.509">W</text>
  <path style="fill: rgb(216, 216, 216); stroke: rgb(0, 0, 0);" d="M 202.592 264.15 L 400 264.584"></path>
  <path style="fill: rgb(216, 216, 216); stroke: rgb(0, 0, 0);" d="M 201.337 98.529 L 202.592 264.584"></path>
  <text style="fill: rgb(51, 51, 51); font-family: &quot;Comic Sans MS&quot;; font-weight: 700; white-space: pre;" x="224.618" y="286.895">Road to BLDO office</text>
  <path style="stroke: rgb(0, 0, 0); fill: none;" d="M 701.963 600.271 L 700 300 L 201.337 300 L 200.082 400"></path>
  <path style="fill: rgb(216, 216, 216); stroke: rgb(0, 0, 0);" d="M 201.337 600.271 L 201.337 500"></path>
  <path d="M 217.337 435.784 H 276.763 L 276.763 420.784 L 316.763 440.784 L 276.763 460.784 L 276.763 445.784 H 217.337 V 435.784 Z" style="fill: rgb(216, 216, 216); stroke: rgb(0, 0, 0);" bx:shape="arrow 217.337 420.784 99.426 40 10 40 0 1@9c64c027"></path>
  <path d="M 654.285 513.158 H 698.989 L 698.989 498.158 L 738.989 518.158 L 698.989 538.158 L 698.989 523.158 H 654.285 V 513.158 Z" style="fill: rgb(216, 216, 216); stroke: rgb(0, 0, 0);" transform="matrix(0.257724, 0.966219, -0.966219, 0.257724, 986.313354, -247.566025)" bx:shape="arrow 654.285 498.158 84.704 40 10 40 0 1@ee7a4773"></path>
  <text style="fill: rgb(51, 51, 51); font-family: &quot;Digital-7 Mono&quot;; font-size: 29px; white-space: pre;" x="-259.51" y="-450.003" transform="matrix(0, -1, 1, 0, 660.929382, 219.807999)">Entry</text>
  <text style="fill: rgb(51, 51, 51); font-family: &quot;Digital-7 Mono&quot;; font-size: 28px; white-space: pre;" x="630.756" y="510.337">Exit</text>
</svg>